<svg width="60" height="60" viewBox="0 0 60 60" fill="none" xmlns="http://www.w3.org/2000/svg">
<path d="M21.648 21.5601C21.72 13.6401 24.672 8.38407 27.408 8.27607C28.632 8.24007 30.684 9.21207 32.016 10.5441C32.664 11.1921 33.096 11.9121 33.852 13.2081C34.356 14.0361 34.608 14.5761 35.292 15.8721C35.292 15.8721 35.508 16.3041 37.164 19.4001C38.604 22.1001 40.008 24.8001 42.492 26.7441C43.608 27.6081 46.452 29.8401 50.16 29.3721C54.48 28.8321 56.676 25.0521 56.964 24.5481C52.68 25.8081 49.944 25.0161 48.54 24.3681C45.912 23.1801 44.292 20.6601 41.232 15.7281C38.46 11.3001 38.388 10.1481 35.976 7.41207C34.068 5.28807 32.124 3.20007 29.352 3.02007C27.12 2.91207 25.428 4.10007 24.456 4.78407C20.928 7.30407 20.172 11.3001 19.992 12.3801C19.2 16.8081 20.964 20.3721 21.648 21.5601Z" fill="black"/>
<path d="M54.6961 32.18C55.0201 34.916 55.0921 39.92 52.1401 44.564C51.6001 45.428 47.9641 51.116 44.0041 50.576C42.7801 50.396 41.4121 49.604 41.4121 48.884C41.4121 48.092 42.9961 47.948 45.2281 46.436C46.5241 45.572 48.0721 44.528 49.0081 42.692C49.5121 41.684 50.1961 39.74 50.1961 37.58C50.1961 37.076 50.1601 36.572 50.3761 35.852C50.7721 34.556 51.7441 33.8 52.2481 33.404C53.0761 32.72 53.9761 32.36 54.6961 32.144V32.18Z" fill="black"/>
<path d="M42.0959 51.2956C41.7719 50.8996 39.0359 52.5196 38.6399 52.0156C38.4599 51.7276 39.1439 51.2236 39.0719 50.2876C38.9999 49.6036 38.5679 49.0996 38.3159 48.8476C36.6959 47.1196 30.3239 47.0116 24.9959 45.6076C20.7479 44.4916 18.8039 42.9796 18.2999 42.5476C17.1479 41.6116 14.9879 39.8476 14.6279 37.0756C14.3399 34.9876 15.2399 33.4036 16.3919 31.3876C19.1999 26.5276 22.9439 24.2236 22.5839 23.6836C22.3679 23.3956 21.2519 24.0436 18.6599 24.9076C15.9959 25.8076 13.7639 26.5636 10.9559 26.5996C8.93995 26.5996 7.96795 26.6356 6.67195 26.3836C5.33995 26.0956 4.69195 25.7356 4.07995 26.0956C3.25195 26.5636 2.92795 28.1116 3.50395 29.0836C4.18795 30.2356 5.87995 30.3436 7.57195 30.4516C8.72395 30.5236 10.5599 30.4876 12.8279 29.7316C11.9639 30.8476 10.3799 33.1876 9.94795 36.5356C9.80395 37.7236 9.40795 40.5676 10.8119 43.2676C13.1159 47.6956 18.5159 49.0996 20.6399 49.6396C27.4079 51.4036 34.3559 49.7836 35.0039 51.7636C35.1839 52.3396 34.7519 53.0236 35.2919 53.8516C35.9039 54.7876 37.1279 55.0036 37.2719 55.0036C39.9719 55.4356 42.5279 51.6916 42.1319 51.2236L42.0959 51.2956Z" fill="black"/>
<path d="M29.028 55.9396C27.48 56.1556 25.176 56.2996 22.476 55.6516C20.352 55.1476 18.66 54.3196 17.436 53.5996C17.976 54.4276 18.732 55.2916 19.812 56.0116C23.808 58.6396 28.452 56.2636 29.028 55.9396Z" fill="black"/>
<path d="M32.1958 29.2278C32.1238 28.9038 32.2318 28.5798 32.3758 28.3998C32.4118 28.3278 32.5918 28.0398 32.9518 27.9678C33.0238 27.9678 33.4198 27.8598 33.7078 28.1118C34.0318 28.3998 33.9238 28.8318 33.8878 28.8678C33.7798 29.2278 33.4198 29.4798 33.1318 29.5878C32.8798 29.6598 32.7358 29.5878 32.5198 29.7678C32.4838 29.7678 32.3758 29.8758 32.2678 30.0198C32.1598 30.2358 32.2678 30.3078 32.1598 30.4878C32.0878 30.6318 31.9078 30.8118 31.6918 30.8118C31.5118 30.8118 31.2958 30.7398 31.2238 30.5598C31.1158 30.3438 31.2238 30.0918 31.4038 29.9838C31.5478 29.8758 31.6558 29.9118 31.9078 29.8038C32.1598 29.6958 32.1238 29.6598 32.1958 29.5158C32.2318 29.4078 32.1958 29.2998 32.1958 29.2278Z" fill="black"/>
<path d="M31.2958 29.6958C31.5118 29.6598 31.7278 29.6958 31.8718 29.7678C31.9078 29.7678 32.1238 29.9118 32.1958 30.1278C32.1958 30.1638 32.3038 30.4158 32.1238 30.6318C31.9438 30.8478 31.6198 30.8118 31.6198 30.7758C31.3678 30.7398 31.1878 30.5238 31.1158 30.3078C31.0798 30.1638 31.1158 30.0558 30.9718 29.9118C30.9718 29.9118 30.8998 29.8038 30.7918 29.7678C30.6478 29.6958 30.5758 29.7678 30.4678 29.7318C30.3598 29.6958 30.2518 29.5878 30.2158 29.4438C30.2158 29.3358 30.2158 29.1918 30.3598 29.1198C30.5038 29.0478 30.6838 29.1198 30.7558 29.2278C30.8278 29.3358 30.8278 29.4078 30.8998 29.5518C30.8998 29.5878 31.0078 29.6958 31.1158 29.7318C31.1878 29.7318 31.2598 29.7318 31.3318 29.7318L31.2958 29.6958Z" fill="black"/>
<path d="M31.5117 31.2438C31.6557 31.1718 31.8357 31.0998 32.0517 31.0278C32.2677 30.9558 33.0957 30.6678 34.2477 30.8478C34.9317 30.9558 35.6517 31.0638 36.2637 31.6398C36.9117 32.2518 37.0557 33.0438 37.0917 33.3678C37.2357 34.1958 36.9837 34.8438 36.8757 35.1318C36.6597 35.7798 36.2997 36.1758 35.9757 36.5718C35.4717 37.1838 34.6077 38.1918 34.4637 38.2278C34.2477 38.2278 34.6437 37.7238 34.7877 37.4358C34.9677 36.8958 35.1477 36.4278 35.2197 36.1038C35.2917 35.5998 35.2197 35.2038 35.1837 35.0598C35.0397 34.5558 34.7877 34.1958 34.6077 33.9438C34.4997 33.7998 34.4277 33.7278 33.9597 33.2958C33.3837 32.7558 32.9517 32.3598 32.3037 31.8198C32.1237 31.6758 31.8717 31.4598 31.5837 31.2438H31.5117Z" fill="black"/>
<path d="M34.2839 33.62C34.1399 33.512 33.8159 33.368 33.4919 33.332C32.8439 33.296 32.5559 33.404 32.196 33.728C31.836 34.052 31.5479 34.592 31.5479 35.24C31.5479 35.888 31.7999 36.896 31.9079 37.076C32.0879 37.436 32.484 38.156 33.06 38.444C33.132 38.48 33.3839 38.588 33.6359 38.588C34.1039 38.588 33.9959 38.408 34.0319 38.444C34.0319 38.444 33.5999 38.804 33.0239 39.02C32.0159 39.344 31.1159 39.02 30.7919 38.948C30.4679 38.84 29.064 38.372 28.38 36.968C28.236 36.716 27.5519 35.168 28.4879 33.692C29.4599 32.18 31.296 32.144 31.476 32.144C31.692 32.144 33.06 32.144 33.96 33.152C34.14 33.332 34.2839 33.44 34.3559 33.584L34.2839 33.62Z" fill="black"/>
<path d="M34.2838 33.6197C34.1398 33.2597 33.8518 32.6837 33.3118 32.1437C33.2398 32.0717 32.9158 31.7837 32.4478 31.4957C31.4038 30.8837 30.3598 30.8477 29.9638 30.8477C29.2438 30.8477 28.1638 30.8477 27.3718 31.6037C26.6518 32.2517 26.5078 33.1517 26.4718 33.5837C26.2198 35.5277 27.3358 37.3637 28.6678 38.4437C29.1358 38.8037 29.9278 39.4877 31.1878 39.6677C32.1598 39.8117 32.9158 39.5597 33.3478 39.4157C34.5718 39.0197 35.2918 38.3357 35.4718 38.1557C36.1198 37.5437 36.4078 36.8957 36.5878 36.4997C36.9838 35.5997 37.1278 34.8077 37.1638 34.3037C37.0918 34.5917 36.9838 34.9157 36.8038 35.2757C36.6238 35.6717 36.2278 36.3557 35.5078 37.0037C35.1838 37.2917 34.9678 37.4717 34.7518 37.6157C34.6438 37.8317 34.4278 38.0837 34.1398 38.3717C33.2398 39.1997 31.7638 39.1637 30.7198 38.7317C29.4598 38.1917 28.9918 37.0397 28.8478 36.7517C28.7038 36.3917 28.3798 35.5637 28.7038 34.5917C28.7758 34.3757 29.0278 33.6557 29.7118 33.1517C30.7198 32.4677 31.8718 32.6837 32.1238 32.7197C32.7718 32.8637 33.4198 33.1877 33.9598 33.4757C34.1398 33.5837 34.2838 33.6197 34.3558 33.6917L34.2838 33.6197Z" fill="black"/>
</svg>
