<svg width="1224" height="1224" viewBox="0 0 1224 1224" fill="none" xmlns="http://www.w3.org/2000/svg">
<g clip-path="url(#paint0_diamond_9466_16110_clip_path)" data-figma-skip-parse="true"><g transform="matrix(-0.505184 0.539022 -0.808281 -0.825951 908.929 61.4649)"><rect x="0" y="0" width="1002.3" height="480.696" fill="url(#paint0_diamond_9466_16110)" opacity="1" shape-rendering="crispEdges"/><rect x="0" y="0" width="1002.3" height="480.696" transform="scale(1 -1)" fill="url(#paint0_diamond_9466_16110)" opacity="1" shape-rendering="crispEdges"/><rect x="0" y="0" width="1002.3" height="480.696" transform="scale(-1 1)" fill="url(#paint0_diamond_9466_16110)" opacity="1" shape-rendering="crispEdges"/><rect x="0" y="0" width="1002.3" height="480.696" transform="scale(-1)" fill="url(#paint0_diamond_9466_16110)" opacity="1" shape-rendering="crispEdges"/></g></g><path d="M441.618 439.821C443.087 278.253 503.308 171.031 559.122 168.828C584.092 168.093 625.952 187.922 653.125 215.095C666.344 228.314 675.157 243.002 690.58 269.441C700.861 286.332 706.002 297.348 719.956 323.786C719.956 323.786 724.362 332.599 758.144 395.757C787.52 450.837 816.162 505.917 866.836 545.575C889.602 563.201 947.62 608.733 1023.26 599.186C1111.39 588.17 1156.19 511.058 1162.06 500.776C1074.67 526.48 1018.86 510.324 990.215 497.104C936.604 472.869 903.555 421.461 841.132 320.849C784.583 230.517 783.114 207.017 733.909 151.202C694.986 107.873 655.328 65.2773 598.78 61.6053C553.247 59.4021 518.73 83.6373 498.901 97.5909C426.93 148.999 411.508 230.517 407.836 252.549C391.679 342.881 427.664 415.586 441.618 439.821Z" data-figma-gradient-fill="{&#34;type&#34;:&#34;GRADIENT_DIAMOND&#34;,&#34;stops&#34;:[{&#34;color&#34;:{&#34;r&#34;:0.22745098173618317,&#34;g&#34;:0.83137255907058716,&#34;b&#34;:0.58039218187332153,&#34;a&#34;:1.0},&#34;position&#34;:0.0},{&#34;color&#34;:{&#34;r&#34;:0.14901961386203766,&#34;g&#34;:0.66274511814117432,&#34;b&#34;:0.61176472902297974,&#34;a&#34;:1.0},&#34;position&#34;:1.0}],&#34;stopsVar&#34;:[{&#34;color&#34;:{&#34;r&#34;:0.22745098173618317,&#34;g&#34;:0.83137255907058716,&#34;b&#34;:0.58039218187332153,&#34;a&#34;:1.0},&#34;position&#34;:0.0},{&#34;color&#34;:{&#34;r&#34;:0.14901961386203766,&#34;g&#34;:0.66274511814117432,&#34;b&#34;:0.61176472902297974,&#34;a&#34;:1.0},&#34;position&#34;:1.0}],&#34;transform&#34;:{&#34;m00&#34;:-1010.36718750,&#34;m01&#34;:-1616.56152343750,&#34;m02&#34;:2222.39355468750,&#34;m10&#34;:1078.0447998046875,&#34;m11&#34;:-1651.9017333984375,&#34;m12&#34;:348.3933105468750},&#34;opacity&#34;:1.0,&#34;blendMode&#34;:&#34;NORMAL&#34;,&#34;visible&#34;:true}"/>
<g clip-path="url(#paint1_diamond_9466_16110_clip_path)" data-figma-skip-parse="true"><g transform="matrix(-0.182611 0.376749 -0.292173 -0.577297 1027.41 655.734)"><rect x="0" y="0" width="1004.84" height="482.341" fill="url(#paint1_diamond_9466_16110)" opacity="1" shape-rendering="crispEdges"/><rect x="0" y="0" width="1004.84" height="482.341" transform="scale(1 -1)" fill="url(#paint1_diamond_9466_16110)" opacity="1" shape-rendering="crispEdges"/><rect x="0" y="0" width="1004.84" height="482.341" transform="scale(-1 1)" fill="url(#paint1_diamond_9466_16110)" opacity="1" shape-rendering="crispEdges"/><rect x="0" y="0" width="1004.84" height="482.341" transform="scale(-1)" fill="url(#paint1_diamond_9466_16110)" opacity="1" shape-rendering="crispEdges"/></g></g><path d="M1115.8 656.469C1122.41 712.283 1123.88 814.365 1063.65 909.102C1052.64 926.728 978.464 1042.76 897.68 1031.75C872.711 1028.08 844.803 1011.92 844.803 997.23C844.803 981.074 877.117 978.136 922.65 947.291C949.088 929.666 980.668 908.368 999.762 870.914C1010.04 850.35 1024 810.693 1024 766.629C1024 756.347 1023.26 746.066 1027.67 731.378C1035.75 704.939 1055.58 689.517 1065.86 681.438C1082.75 667.485 1101.11 660.141 1115.8 655.734V656.469Z" data-figma-gradient-fill="{&#34;type&#34;:&#34;GRADIENT_DIAMOND&#34;,&#34;stops&#34;:[{&#34;color&#34;:{&#34;r&#34;:0.22745098173618317,&#34;g&#34;:0.83137255907058716,&#34;b&#34;:0.58039218187332153,&#34;a&#34;:1.0},&#34;position&#34;:0.0},{&#34;color&#34;:{&#34;r&#34;:0.14901961386203766,&#34;g&#34;:0.66274511814117432,&#34;b&#34;:0.61176472902297974,&#34;a&#34;:1.0},&#34;position&#34;:1.0}],&#34;stopsVar&#34;:[{&#34;color&#34;:{&#34;r&#34;:0.22745098173618317,&#34;g&#34;:0.83137255907058716,&#34;b&#34;:0.58039218187332153,&#34;a&#34;:1.0},&#34;position&#34;:0.0},{&#34;color&#34;:{&#34;r&#34;:0.14901961386203766,&#34;g&#34;:0.66274511814117432,&#34;b&#34;:0.61176472902297974,&#34;a&#34;:1.0},&#34;position&#34;:1.0}],&#34;transform&#34;:{&#34;m00&#34;:-365.2224121093750,&#34;m01&#34;:-584.3464355468750,&#34;m02&#34;:1502.1990966796875,&#34;m10&#34;:753.49713134765625,&#34;m11&#34;:-1154.5931396484375,&#34;m12&#34;:856.28240966796875},&#34;opacity&#34;:1.0,&#34;blendMode&#34;:&#34;NORMAL&#34;,&#34;visible&#34;:true}"/>
<g clip-path="url(#paint2_diamond_9466_16110_clip_path)" data-figma-skip-parse="true"><g transform="matrix(-0.529474 0.641049 -0.847144 -0.982287 595.016 481.735)"><rect x="0" y="0" width="1002.06" height="480.548" fill="url(#paint2_diamond_9466_16110)" opacity="1" shape-rendering="crispEdges"/><rect x="0" y="0" width="1002.06" height="480.548" transform="scale(1 -1)" fill="url(#paint2_diamond_9466_16110)" opacity="1" shape-rendering="crispEdges"/><rect x="0" y="0" width="1002.06" height="480.548" transform="scale(-1 1)" fill="url(#paint2_diamond_9466_16110)" opacity="1" shape-rendering="crispEdges"/><rect x="0" y="0" width="1002.06" height="480.548" transform="scale(-1)" fill="url(#paint2_diamond_9466_16110)" opacity="1" shape-rendering="crispEdges"/></g></g><path d="M858.757 1046.43C852.147 1038.36 796.333 1071.4 788.255 1061.12C784.583 1055.25 798.536 1044.97 797.067 1025.87C795.599 1011.92 786.786 1001.64 781.645 996.496C748.597 961.244 618.608 959.041 509.917 930.4C423.258 907.633 383.6 876.788 373.319 867.976C349.818 848.881 305.754 812.896 298.41 756.347C292.535 713.752 310.895 681.438 334.395 640.312C391.679 541.168 468.056 494.166 460.712 483.15C456.306 477.275 433.539 490.494 380.663 508.12C326.317 526.48 280.784 541.902 223.501 542.636C182.375 542.636 162.546 543.371 136.107 538.23C108.935 532.355 95.7155 525.011 83.2307 532.355C66.3395 541.902 59.7299 573.481 71.4803 593.31C85.4339 616.811 119.951 619.014 154.467 621.217C177.968 622.686 215.423 621.952 261.69 606.529C244.064 629.296 211.751 677.032 202.938 745.331C200 769.566 191.922 827.584 220.563 882.664C267.565 972.995 377.725 1001.64 421.055 1012.65C559.122 1048.64 700.861 1015.59 714.08 1055.98C717.752 1067.73 708.939 1081.69 719.955 1098.58C732.44 1117.67 757.41 1122.08 760.347 1122.08C815.427 1130.89 867.57 1054.51 859.491 1044.97L858.757 1046.43Z" data-figma-gradient-fill="{&#34;type&#34;:&#34;GRADIENT_DIAMOND&#34;,&#34;stops&#34;:[{&#34;color&#34;:{&#34;r&#34;:0.22745098173618317,&#34;g&#34;:0.83137255907058716,&#34;b&#34;:0.58039218187332153,&#34;a&#34;:1.0},&#34;position&#34;:0.0},{&#34;color&#34;:{&#34;r&#34;:0.14901961386203766,&#34;g&#34;:0.66274511814117432,&#34;b&#34;:0.61176472902297974,&#34;a&#34;:1.0},&#34;position&#34;:1.0}],&#34;stopsVar&#34;:[{&#34;color&#34;:{&#34;r&#34;:0.22745098173618317,&#34;g&#34;:0.83137255907058716,&#34;b&#34;:0.58039218187332153,&#34;a&#34;:1.0},&#34;position&#34;:0.0},{&#34;color&#34;:{&#34;r&#34;:0.14901961386203766,&#34;g&#34;:0.66274511814117432,&#34;b&#34;:0.61176472902297974,&#34;a&#34;:1.0},&#34;position&#34;:1.0}],&#34;transform&#34;:{&#34;m00&#34;:-1058.9470214843750,&#34;m01&#34;:-1694.28808593750,&#34;m02&#34;:1971.63378906250,&#34;m10&#34;:1282.0977783203125,&#34;m11&#34;:-1964.5745849609375,&#34;m12&#34;:822.97381591796875},&#34;opacity&#34;:1.0,&#34;blendMode&#34;:&#34;NORMAL&#34;,&#34;visible&#34;:true}"/>
<g clip-path="url(#paint3_diamond_9466_16110_clip_path)" data-figma-skip-parse="true"><g transform="matrix(-0.157538 0.0741538 -0.252057 -0.113627 513.231 1093.44)"><rect x="0" y="0" width="1011.99" height="486.825" fill="url(#paint3_diamond_9466_16110)" opacity="1" shape-rendering="crispEdges"/><rect x="0" y="0" width="1011.99" height="486.825" transform="scale(1 -1)" fill="url(#paint3_diamond_9466_16110)" opacity="1" shape-rendering="crispEdges"/><rect x="0" y="0" width="1011.99" height="486.825" transform="scale(-1 1)" fill="url(#paint3_diamond_9466_16110)" opacity="1" shape-rendering="crispEdges"/><rect x="0" y="0" width="1011.99" height="486.825" transform="scale(-1)" fill="url(#paint3_diamond_9466_16110)" opacity="1" shape-rendering="crispEdges"/></g></g><path d="M592.17 1141.17C560.591 1145.58 513.589 1148.52 458.509 1135.3C415.18 1125.02 380.663 1108.12 355.693 1093.44C366.709 1110.33 382.132 1127.95 404.164 1142.64C485.682 1196.25 580.419 1147.78 592.17 1141.17Z" data-figma-gradient-fill="{&#34;type&#34;:&#34;GRADIENT_DIAMOND&#34;,&#34;stops&#34;:[{&#34;color&#34;:{&#34;r&#34;:0.22745098173618317,&#34;g&#34;:0.83137255907058716,&#34;b&#34;:0.58039218187332153,&#34;a&#34;:1.0},&#34;position&#34;:0.0},{&#34;color&#34;:{&#34;r&#34;:0.14901961386203766,&#34;g&#34;:0.66274511814117432,&#34;b&#34;:0.61176472902297974,&#34;a&#34;:1.0},&#34;position&#34;:1.0}],&#34;stopsVar&#34;:[{&#34;color&#34;:{&#34;r&#34;:0.22745098173618317,&#34;g&#34;:0.83137255907058716,&#34;b&#34;:0.58039218187332153,&#34;a&#34;:1.0},&#34;position&#34;:0.0},{&#34;color&#34;:{&#34;r&#34;:0.14901961386203766,&#34;g&#34;:0.66274511814117432,&#34;b&#34;:0.61176472902297974,&#34;a&#34;:1.0},&#34;position&#34;:1.0}],&#34;transform&#34;:{&#34;m00&#34;:-315.07650756835938,&#34;m01&#34;:-504.11431884765625,&#34;m02&#34;:922.82678222656250,&#34;m10&#34;:148.30760192871094,&#34;m11&#34;:-227.25361633300781,&#34;m12&#34;:1132.9095458984375},&#34;opacity&#34;:1.0,&#34;blendMode&#34;:&#34;NORMAL&#34;,&#34;visible&#34;:true}"/>
<g clip-path="url(#paint4_diamond_9466_16110_clip_path)" data-figma-skip-parse="true"><g transform="matrix(-0.0374209 0.0584869 -0.0598725 -0.0896202 673.51 570.074)"><rect x="0" y="0" width="1026.17" height="496.015" fill="url(#paint4_diamond_9466_16110)" opacity="1" shape-rendering="crispEdges"/><rect x="0" y="0" width="1026.17" height="496.015" transform="scale(1 -1)" fill="url(#paint4_diamond_9466_16110)" opacity="1" shape-rendering="crispEdges"/><rect x="0" y="0" width="1026.17" height="496.015" transform="scale(-1 1)" fill="url(#paint4_diamond_9466_16110)" opacity="1" shape-rendering="crispEdges"/><rect x="0" y="0" width="1026.17" height="496.015" transform="scale(-1)" fill="url(#paint4_diamond_9466_16110)" opacity="1" shape-rendering="crispEdges"/></g></g><path d="M656.797 596.248C655.328 589.638 657.532 583.028 660.469 579.356C661.204 577.888 664.875 572.012 672.219 570.544C673.688 570.544 681.767 568.34 687.642 573.481C694.251 579.356 692.048 588.169 691.314 588.904C689.111 596.248 681.767 601.388 675.891 603.592C670.751 605.06 667.813 603.592 663.407 607.264C662.672 607.264 660.469 609.467 658.266 612.404C656.063 616.811 658.266 618.28 656.063 621.952C654.594 624.889 650.922 628.561 646.515 628.561C642.843 628.561 638.437 627.092 636.968 623.42C634.765 619.014 636.968 613.873 640.64 611.67C643.578 609.467 645.781 610.201 650.922 607.998C656.063 605.795 655.328 605.06 656.797 602.123C657.532 599.92 656.797 597.716 656.797 596.248Z" data-figma-gradient-fill="{&#34;type&#34;:&#34;GRADIENT_DIAMOND&#34;,&#34;stops&#34;:[{&#34;color&#34;:{&#34;r&#34;:0.22745098173618317,&#34;g&#34;:0.83137255907058716,&#34;b&#34;:0.58039218187332153,&#34;a&#34;:1.0},&#34;position&#34;:0.0},{&#34;color&#34;:{&#34;r&#34;:0.14901961386203766,&#34;g&#34;:0.66274511814117432,&#34;b&#34;:0.61176472902297974,&#34;a&#34;:1.0},&#34;position&#34;:1.0}],&#34;stopsVar&#34;:[{&#34;color&#34;:{&#34;r&#34;:0.22745098173618317,&#34;g&#34;:0.83137255907058716,&#34;b&#34;:0.58039218187332153,&#34;a&#34;:1.0},&#34;position&#34;:0.0},{&#34;color&#34;:{&#34;r&#34;:0.14901961386203766,&#34;g&#34;:0.66274511814117432,&#34;b&#34;:0.61176472902297974,&#34;a&#34;:1.0},&#34;position&#34;:1.0}],&#34;transform&#34;:{&#34;m00&#34;:-74.841773986816406,&#34;m01&#34;:-119.74491882324219,&#34;m02&#34;:770.80352783203125,&#34;m10&#34;:116.97383117675781,&#34;m11&#34;:-179.2404785156250,&#34;m12&#34;:601.207519531250},&#34;opacity&#34;:1.0,&#34;blendMode&#34;:&#34;NORMAL&#34;,&#34;visible&#34;:true}"/>
<g clip-path="url(#paint5_diamond_9466_16110_clip_path)" data-figma-skip-parse="true"><g transform="matrix(-0.0273454 0.0349288 -0.0437519 -0.0535219 643.75 593.453)"><rect x="0" y="0" width="1039.02" height="504.205" fill="url(#paint5_diamond_9466_16110)" opacity="1" shape-rendering="crispEdges"/><rect x="0" y="0" width="1039.02" height="504.205" transform="scale(1 -1)" fill="url(#paint5_diamond_9466_16110)" opacity="1" shape-rendering="crispEdges"/><rect x="0" y="0" width="1039.02" height="504.205" transform="scale(-1 1)" fill="url(#paint5_diamond_9466_16110)" opacity="1" shape-rendering="crispEdges"/><rect x="0" y="0" width="1039.02" height="504.205" transform="scale(-1)" fill="url(#paint5_diamond_9466_16110)" opacity="1" shape-rendering="crispEdges"/></g></g><path d="M638.437 605.795C642.843 605.06 647.25 605.795 650.187 607.264C650.922 607.264 655.328 610.201 656.797 614.608C656.797 615.342 659 620.483 655.328 624.889C651.656 629.296 645.047 628.561 645.047 627.827C639.906 627.092 636.234 622.686 634.765 618.28C634.031 615.342 634.765 613.139 631.827 610.201C631.827 610.201 630.359 607.998 628.155 607.264C625.218 605.795 623.749 607.264 621.546 606.529C619.343 605.795 617.139 603.592 616.405 600.654C616.405 598.451 616.405 595.513 619.343 594.044C622.28 592.576 625.952 594.044 627.421 596.248C628.89 598.451 628.89 599.92 630.359 602.857C630.359 603.592 632.562 605.795 634.765 606.529C636.234 606.529 637.703 606.529 639.171 606.529L638.437 605.795Z" data-figma-gradient-fill="{&#34;type&#34;:&#34;GRADIENT_DIAMOND&#34;,&#34;stops&#34;:[{&#34;color&#34;:{&#34;r&#34;:0.22745098173618317,&#34;g&#34;:0.83137255907058716,&#34;b&#34;:0.58039218187332153,&#34;a&#34;:1.0},&#34;position&#34;:0.0},{&#34;color&#34;:{&#34;r&#34;:0.14901961386203766,&#34;g&#34;:0.66274511814117432,&#34;b&#34;:0.61176472902297974,&#34;a&#34;:1.0},&#34;position&#34;:1.0}],&#34;stopsVar&#34;:[{&#34;color&#34;:{&#34;r&#34;:0.22745098173618317,&#34;g&#34;:0.83137255907058716,&#34;b&#34;:0.58039218187332153,&#34;a&#34;:1.0},&#34;position&#34;:0.0},{&#34;color&#34;:{&#34;r&#34;:0.14901961386203766,&#34;g&#34;:0.66274511814117432,&#34;b&#34;:0.61176472902297974,&#34;a&#34;:1.0},&#34;position&#34;:1.0}],&#34;transform&#34;:{&#34;m00&#34;:-54.690761566162109,&#34;m01&#34;:-87.503807067871094,&#34;m02&#34;:714.84777832031250,&#34;m10&#34;:69.857635498046875,&#34;m11&#34;:-107.04373931884766,&#34;m12&#34;:612.04620361328125},&#34;opacity&#34;:1.0,&#34;blendMode&#34;:&#34;NORMAL&#34;,&#34;visible&#34;:true}"/>
<g clip-path="url(#paint6_diamond_9466_16110_clip_path)" data-figma-skip-parse="true"><g transform="matrix(-0.0764226 0.15174 -0.122274 -0.232514 719.266 628.107)"><rect x="0" y="0" width="1011.72" height="486.764" fill="url(#paint6_diamond_9466_16110)" opacity="1" shape-rendering="crispEdges"/><rect x="0" y="0" width="1011.72" height="486.764" transform="scale(1 -1)" fill="url(#paint6_diamond_9466_16110)" opacity="1" shape-rendering="crispEdges"/><rect x="0" y="0" width="1011.72" height="486.764" transform="scale(-1 1)" fill="url(#paint6_diamond_9466_16110)" opacity="1" shape-rendering="crispEdges"/><rect x="0" y="0" width="1011.72" height="486.764" transform="scale(-1)" fill="url(#paint6_diamond_9466_16110)" opacity="1" shape-rendering="crispEdges"/></g></g><path d="M642.844 637.374C645.781 635.905 649.453 634.437 653.86 632.968C658.266 631.499 675.157 625.624 698.658 629.296C712.611 631.499 727.3 633.702 739.784 645.453C753.004 657.937 755.941 674.094 756.676 680.704C759.613 697.595 754.472 710.814 752.269 716.689C747.863 729.909 740.519 737.987 733.909 746.065C723.628 758.55 706.002 779.113 703.064 779.848C698.658 779.848 706.736 769.566 709.674 763.691C713.346 752.675 717.018 743.128 718.487 736.518C719.956 726.237 718.487 718.158 717.752 715.221C714.815 704.939 709.674 697.595 706.002 692.454C703.799 689.517 702.33 688.048 692.783 679.235C681.032 668.219 672.219 660.141 659 649.125C655.328 646.187 650.188 641.781 644.312 637.374H642.844Z" data-figma-gradient-fill="{&#34;type&#34;:&#34;GRADIENT_DIAMOND&#34;,&#34;stops&#34;:[{&#34;color&#34;:{&#34;r&#34;:0.22745098173618317,&#34;g&#34;:0.83137255907058716,&#34;b&#34;:0.58039218187332153,&#34;a&#34;:1.0},&#34;position&#34;:0.0},{&#34;color&#34;:{&#34;r&#34;:0.14901961386203766,&#34;g&#34;:0.66274511814117432,&#34;b&#34;:0.61176472902297974,&#34;a&#34;:1.0},&#34;position&#34;:1.0}],&#34;stopsVar&#34;:[{&#34;color&#34;:{&#34;r&#34;:0.22745098173618317,&#34;g&#34;:0.83137255907058716,&#34;b&#34;:0.58039218187332153,&#34;a&#34;:1.0},&#34;position&#34;:0.0},{&#34;color&#34;:{&#34;r&#34;:0.14901961386203766,&#34;g&#34;:0.66274511814117432,&#34;b&#34;:0.61176472902297974,&#34;a&#34;:1.0},&#34;position&#34;:1.0}],&#34;transform&#34;:{&#34;m00&#34;:-152.84518432617188,&#34;m01&#34;:-244.54835510253906,&#34;m02&#34;:917.9628906250,&#34;m10&#34;:303.48062133789062,&#34;m11&#34;:-465.02719116210938,&#34;m12&#34;:708.88073730468750},&#34;opacity&#34;:1.0,&#34;blendMode&#34;:&#34;NORMAL&#34;,&#34;visible&#34;:true}"/>
<g clip-path="url(#paint7_diamond_9466_16110_clip_path)" data-figma-skip-parse="true"><g transform="matrix(-0.0863259 0.143156 -0.138119 -0.21936 657.605 655.734)"><rect x="0" y="0" width="1011.08" height="486.341" fill="url(#paint7_diamond_9466_16110)" opacity="1" shape-rendering="crispEdges"/><rect x="0" y="0" width="1011.08" height="486.341" transform="scale(1 -1)" fill="url(#paint7_diamond_9466_16110)" opacity="1" shape-rendering="crispEdges"/><rect x="0" y="0" width="1011.08" height="486.341" transform="scale(-1 1)" fill="url(#paint7_diamond_9466_16110)" opacity="1" shape-rendering="crispEdges"/><rect x="0" y="0" width="1011.08" height="486.341" transform="scale(-1)" fill="url(#paint7_diamond_9466_16110)" opacity="1" shape-rendering="crispEdges"/></g></g><path d="M699.392 685.845C696.455 683.642 689.845 680.704 683.236 679.97C670.016 679.235 664.141 681.438 656.797 688.048C649.453 694.658 643.578 705.674 643.578 718.893C643.578 732.112 648.719 752.675 650.922 756.347C654.594 763.691 662.672 778.379 674.423 784.254C675.892 784.989 681.032 787.192 686.173 787.192C695.72 787.192 693.517 783.52 694.252 784.254C694.252 784.254 685.439 791.598 673.688 796.005C653.125 802.614 634.765 796.005 628.156 794.536C621.546 792.333 592.904 782.786 578.951 754.144C576.013 749.003 562.06 717.424 581.154 687.314C600.983 656.469 638.437 655.734 642.109 655.734C646.516 655.734 674.423 655.734 692.783 676.298C696.455 679.97 699.392 682.173 700.861 685.11L699.392 685.845Z" data-figma-gradient-fill="{&#34;type&#34;:&#34;GRADIENT_DIAMOND&#34;,&#34;stops&#34;:[{&#34;color&#34;:{&#34;r&#34;:0.22745098173618317,&#34;g&#34;:0.83137255907058716,&#34;b&#34;:0.58039218187332153,&#34;a&#34;:1.0},&#34;position&#34;:0.0},{&#34;color&#34;:{&#34;r&#34;:0.14901961386203766,&#34;g&#34;:0.66274511814117432,&#34;b&#34;:0.61176472902297974,&#34;a&#34;:1.0},&#34;position&#34;:1.0}],&#34;stopsVar&#34;:[{&#34;color&#34;:{&#34;r&#34;:0.22745098173618317,&#34;g&#34;:0.83137255907058716,&#34;b&#34;:0.58039218187332153,&#34;a&#34;:1.0},&#34;position&#34;:0.0},{&#34;color&#34;:{&#34;r&#34;:0.14901961386203766,&#34;g&#34;:0.66274511814117432,&#34;b&#34;:0.61176472902297974,&#34;a&#34;:1.0},&#34;position&#34;:1.0}],&#34;transform&#34;:{&#34;m00&#34;:-172.65182495117188,&#34;m01&#34;:-276.23849487304688,&#34;m02&#34;:882.05047607421875,&#34;m10&#34;:286.31268310546875,&#34;m11&#34;:-438.72055053710938,&#34;m12&#34;:731.93829345703125},&#34;opacity&#34;:1.0,&#34;blendMode&#34;:&#34;NORMAL&#34;,&#34;visible&#34;:true}"/>
<g clip-path="url(#paint8_diamond_9466_16110_clip_path)" data-figma-skip-parse="true"><g transform="matrix(-0.145793 0.180805 -0.233265 -0.27705 685.091 629.296)"><rect x="0" y="0" width="1007.42" height="483.973" fill="url(#paint8_diamond_9466_16110)" opacity="1" shape-rendering="crispEdges"/><rect x="0" y="0" width="1007.42" height="483.973" transform="scale(1 -1)" fill="url(#paint8_diamond_9466_16110)" opacity="1" shape-rendering="crispEdges"/><rect x="0" y="0" width="1007.42" height="483.973" transform="scale(-1 1)" fill="url(#paint8_diamond_9466_16110)" opacity="1" shape-rendering="crispEdges"/><rect x="0" y="0" width="1007.42" height="483.973" transform="scale(-1)" fill="url(#paint8_diamond_9466_16110)" opacity="1" shape-rendering="crispEdges"/></g></g><path d="M699.392 685.845C696.455 678.501 690.58 666.75 679.564 655.734C678.095 654.265 671.485 648.39 661.938 642.515C640.64 630.03 619.343 629.296 611.264 629.296C596.576 629.296 574.544 629.296 558.388 644.718C543.7 657.937 540.762 676.297 540.028 685.11C534.887 724.768 557.653 762.222 584.826 784.254C594.373 791.598 610.53 805.552 636.234 809.224C656.063 812.161 671.485 807.021 680.298 804.083C705.268 796.005 719.956 782.051 723.628 778.379C736.847 765.894 742.722 752.675 746.394 744.597C754.472 726.237 757.41 710.08 758.144 699.798C756.676 705.673 754.472 712.283 750.8 719.627C747.128 727.706 739.05 741.659 724.362 754.878C717.752 760.753 713.346 764.425 708.94 767.363C706.736 771.769 702.33 776.91 696.455 782.785C678.095 799.677 647.984 798.942 626.687 790.129C600.983 779.113 591.436 755.613 588.498 749.737C585.56 742.393 578.951 725.502 585.56 705.674C587.029 701.267 592.17 686.579 606.124 676.298C626.687 662.344 650.188 666.75 655.328 667.485C668.548 670.422 681.767 677.032 692.783 682.907C696.455 685.11 699.392 685.845 700.861 687.314L699.392 685.845Z" data-figma-gradient-fill="{&#34;type&#34;:&#34;GRADIENT_DIAMOND&#34;,&#34;stops&#34;:[{&#34;color&#34;:{&#34;r&#34;:0.22745098173618317,&#34;g&#34;:0.83137255907058716,&#34;b&#34;:0.58039218187332153,&#34;a&#34;:1.0},&#34;position&#34;:0.0},{&#34;color&#34;:{&#34;r&#34;:0.14901961386203766,&#34;g&#34;:0.66274511814117432,&#34;b&#34;:0.61176472902297974,&#34;a&#34;:1.0},&#34;position&#34;:1.0}],&#34;stopsVar&#34;:[{&#34;color&#34;:{&#34;r&#34;:0.22745098173618317,&#34;g&#34;:0.83137255907058716,&#34;b&#34;:0.58039218187332153,&#34;a&#34;:1.0},&#34;position&#34;:0.0},{&#34;color&#34;:{&#34;r&#34;:0.14901961386203766,&#34;g&#34;:0.66274511814117432,&#34;b&#34;:0.61176472902297974,&#34;a&#34;:1.0},&#34;position&#34;:1.0}],&#34;transform&#34;:{&#34;m00&#34;:-291.586425781250,&#34;m01&#34;:-466.53079223632812,&#34;m02&#34;:1064.1496582031250,&#34;m10&#34;:361.61016845703125,&#34;m11&#34;:-554.09979248046875,&#34;m12&#34;:725.54071044921875},&#34;opacity&#34;:1.0,&#34;blendMode&#34;:&#34;NORMAL&#34;,&#34;visible&#34;:true}"/>
<defs>
<clipPath id="paint0_diamond_9466_16110_clip_path"><path d="M441.618 439.821C443.087 278.253 503.308 171.031 559.122 168.828C584.092 168.093 625.952 187.922 653.125 215.095C666.344 228.314 675.157 243.002 690.58 269.441C700.861 286.332 706.002 297.348 719.956 323.786C719.956 323.786 724.362 332.599 758.144 395.757C787.52 450.837 816.162 505.917 866.836 545.575C889.602 563.201 947.62 608.733 1023.26 599.186C1111.39 588.17 1156.19 511.058 1162.06 500.776C1074.67 526.48 1018.86 510.324 990.215 497.104C936.604 472.869 903.555 421.461 841.132 320.849C784.583 230.517 783.114 207.017 733.909 151.202C694.986 107.873 655.328 65.2773 598.78 61.6053C553.247 59.4021 518.73 83.6373 498.901 97.5909C426.93 148.999 411.508 230.517 407.836 252.549C391.679 342.881 427.664 415.586 441.618 439.821Z"/></clipPath><clipPath id="paint1_diamond_9466_16110_clip_path"><path d="M1115.8 656.469C1122.41 712.283 1123.88 814.365 1063.65 909.102C1052.64 926.728 978.464 1042.76 897.68 1031.75C872.711 1028.08 844.803 1011.92 844.803 997.23C844.803 981.074 877.117 978.136 922.65 947.291C949.088 929.666 980.668 908.368 999.762 870.914C1010.04 850.35 1024 810.693 1024 766.629C1024 756.347 1023.26 746.066 1027.67 731.378C1035.75 704.939 1055.58 689.517 1065.86 681.438C1082.75 667.485 1101.11 660.141 1115.8 655.734V656.469Z"/></clipPath><clipPath id="paint2_diamond_9466_16110_clip_path"><path d="M858.757 1046.43C852.147 1038.36 796.333 1071.4 788.255 1061.12C784.583 1055.25 798.536 1044.97 797.067 1025.87C795.599 1011.92 786.786 1001.64 781.645 996.496C748.597 961.244 618.608 959.041 509.917 930.4C423.258 907.633 383.6 876.788 373.319 867.976C349.818 848.881 305.754 812.896 298.41 756.347C292.535 713.752 310.895 681.438 334.395 640.312C391.679 541.168 468.056 494.166 460.712 483.15C456.306 477.275 433.539 490.494 380.663 508.12C326.317 526.48 280.784 541.902 223.501 542.636C182.375 542.636 162.546 543.371 136.107 538.23C108.935 532.355 95.7155 525.011 83.2307 532.355C66.3395 541.902 59.7299 573.481 71.4803 593.31C85.4339 616.811 119.951 619.014 154.467 621.217C177.968 622.686 215.423 621.952 261.69 606.529C244.064 629.296 211.751 677.032 202.938 745.331C200 769.566 191.922 827.584 220.563 882.664C267.565 972.995 377.725 1001.64 421.055 1012.65C559.122 1048.64 700.861 1015.59 714.08 1055.98C717.752 1067.73 708.939 1081.69 719.955 1098.58C732.44 1117.67 757.41 1122.08 760.347 1122.08C815.427 1130.89 867.57 1054.51 859.491 1044.97L858.757 1046.43Z"/></clipPath><clipPath id="paint3_diamond_9466_16110_clip_path"><path d="M592.17 1141.17C560.591 1145.58 513.589 1148.52 458.509 1135.3C415.18 1125.02 380.663 1108.12 355.693 1093.44C366.709 1110.33 382.132 1127.95 404.164 1142.64C485.682 1196.25 580.419 1147.78 592.17 1141.17Z"/></clipPath><clipPath id="paint4_diamond_9466_16110_clip_path"><path d="M656.797 596.248C655.328 589.638 657.532 583.028 660.469 579.356C661.204 577.888 664.875 572.012 672.219 570.544C673.688 570.544 681.767 568.34 687.642 573.481C694.251 579.356 692.048 588.169 691.314 588.904C689.111 596.248 681.767 601.388 675.891 603.592C670.751 605.06 667.813 603.592 663.407 607.264C662.672 607.264 660.469 609.467 658.266 612.404C656.063 616.811 658.266 618.28 656.063 621.952C654.594 624.889 650.922 628.561 646.515 628.561C642.843 628.561 638.437 627.092 636.968 623.42C634.765 619.014 636.968 613.873 640.64 611.67C643.578 609.467 645.781 610.201 650.922 607.998C656.063 605.795 655.328 605.06 656.797 602.123C657.532 599.92 656.797 597.716 656.797 596.248Z"/></clipPath><clipPath id="paint5_diamond_9466_16110_clip_path"><path d="M638.437 605.795C642.843 605.06 647.25 605.795 650.187 607.264C650.922 607.264 655.328 610.201 656.797 614.608C656.797 615.342 659 620.483 655.328 624.889C651.656 629.296 645.047 628.561 645.047 627.827C639.906 627.092 636.234 622.686 634.765 618.28C634.031 615.342 634.765 613.139 631.827 610.201C631.827 610.201 630.359 607.998 628.155 607.264C625.218 605.795 623.749 607.264 621.546 606.529C619.343 605.795 617.139 603.592 616.405 600.654C616.405 598.451 616.405 595.513 619.343 594.044C622.28 592.576 625.952 594.044 627.421 596.248C628.89 598.451 628.89 599.92 630.359 602.857C630.359 603.592 632.562 605.795 634.765 606.529C636.234 606.529 637.703 606.529 639.171 606.529L638.437 605.795Z"/></clipPath><clipPath id="paint6_diamond_9466_16110_clip_path"><path d="M642.844 637.374C645.781 635.905 649.453 634.437 653.86 632.968C658.266 631.499 675.157 625.624 698.658 629.296C712.611 631.499 727.3 633.702 739.784 645.453C753.004 657.937 755.941 674.094 756.676 680.704C759.613 697.595 754.472 710.814 752.269 716.689C747.863 729.909 740.519 737.987 733.909 746.065C723.628 758.55 706.002 779.113 703.064 779.848C698.658 779.848 706.736 769.566 709.674 763.691C713.346 752.675 717.018 743.128 718.487 736.518C719.956 726.237 718.487 718.158 717.752 715.221C714.815 704.939 709.674 697.595 706.002 692.454C703.799 689.517 702.33 688.048 692.783 679.235C681.032 668.219 672.219 660.141 659 649.125C655.328 646.187 650.188 641.781 644.312 637.374H642.844Z"/></clipPath><clipPath id="paint7_diamond_9466_16110_clip_path"><path d="M699.392 685.845C696.455 683.642 689.845 680.704 683.236 679.97C670.016 679.235 664.141 681.438 656.797 688.048C649.453 694.658 643.578 705.674 643.578 718.893C643.578 732.112 648.719 752.675 650.922 756.347C654.594 763.691 662.672 778.379 674.423 784.254C675.892 784.989 681.032 787.192 686.173 787.192C695.72 787.192 693.517 783.52 694.252 784.254C694.252 784.254 685.439 791.598 673.688 796.005C653.125 802.614 634.765 796.005 628.156 794.536C621.546 792.333 592.904 782.786 578.951 754.144C576.013 749.003 562.06 717.424 581.154 687.314C600.983 656.469 638.437 655.734 642.109 655.734C646.516 655.734 674.423 655.734 692.783 676.298C696.455 679.97 699.392 682.173 700.861 685.11L699.392 685.845Z"/></clipPath><clipPath id="paint8_diamond_9466_16110_clip_path"><path d="M699.392 685.845C696.455 678.501 690.58 666.75 679.564 655.734C678.095 654.265 671.485 648.39 661.938 642.515C640.64 630.03 619.343 629.296 611.264 629.296C596.576 629.296 574.544 629.296 558.388 644.718C543.7 657.937 540.762 676.297 540.028 685.11C534.887 724.768 557.653 762.222 584.826 784.254C594.373 791.598 610.53 805.552 636.234 809.224C656.063 812.161 671.485 807.021 680.298 804.083C705.268 796.005 719.956 782.051 723.628 778.379C736.847 765.894 742.722 752.675 746.394 744.597C754.472 726.237 757.41 710.08 758.144 699.798C756.676 705.673 754.472 712.283 750.8 719.627C747.128 727.706 739.05 741.659 724.362 754.878C717.752 760.753 713.346 764.425 708.94 767.363C706.736 771.769 702.33 776.91 696.455 782.785C678.095 799.677 647.984 798.942 626.687 790.129C600.983 779.113 591.436 755.613 588.498 749.737C585.56 742.393 578.951 725.502 585.56 705.674C587.029 701.267 592.17 686.579 606.124 676.298C626.687 662.344 650.188 666.75 655.328 667.485C668.548 670.422 681.767 677.032 692.783 682.907C696.455 685.11 699.392 685.845 700.861 687.314L699.392 685.845Z"/></clipPath><linearGradient id="paint0_diamond_9466_16110" x1="0" y1="0" x2="500" y2="500" gradientUnits="userSpaceOnUse">
<stop stop-color="#3AD494"/>
<stop offset="1" stop-color="#26A99C"/>
</linearGradient>
<linearGradient id="paint1_diamond_9466_16110" x1="0" y1="0" x2="500" y2="500" gradientUnits="userSpaceOnUse">
<stop stop-color="#3AD494"/>
<stop offset="1" stop-color="#26A99C"/>
</linearGradient>
<linearGradient id="paint2_diamond_9466_16110" x1="0" y1="0" x2="500" y2="500" gradientUnits="userSpaceOnUse">
<stop stop-color="#3AD494"/>
<stop offset="1" stop-color="#26A99C"/>
</linearGradient>
<linearGradient id="paint3_diamond_9466_16110" x1="0" y1="0" x2="500" y2="500" gradientUnits="userSpaceOnUse">
<stop stop-color="#3AD494"/>
<stop offset="1" stop-color="#26A99C"/>
</linearGradient>
<linearGradient id="paint4_diamond_9466_16110" x1="0" y1="0" x2="500" y2="500" gradientUnits="userSpaceOnUse">
<stop stop-color="#3AD494"/>
<stop offset="1" stop-color="#26A99C"/>
</linearGradient>
<linearGradient id="paint5_diamond_9466_16110" x1="0" y1="0" x2="500" y2="500" gradientUnits="userSpaceOnUse">
<stop stop-color="#3AD494"/>
<stop offset="1" stop-color="#26A99C"/>
</linearGradient>
<linearGradient id="paint6_diamond_9466_16110" x1="0" y1="0" x2="500" y2="500" gradientUnits="userSpaceOnUse">
<stop stop-color="#3AD494"/>
<stop offset="1" stop-color="#26A99C"/>
</linearGradient>
<linearGradient id="paint7_diamond_9466_16110" x1="0" y1="0" x2="500" y2="500" gradientUnits="userSpaceOnUse">
<stop stop-color="#3AD494"/>
<stop offset="1" stop-color="#26A99C"/>
</linearGradient>
<linearGradient id="paint8_diamond_9466_16110" x1="0" y1="0" x2="500" y2="500" gradientUnits="userSpaceOnUse">
<stop stop-color="#3AD494"/>
<stop offset="1" stop-color="#26A99C"/>
</linearGradient>
</defs>
</svg>
